<?plantuml 1.2026.2?><svg xmlns="http://www.w3.org/2000/svg" xmlns:xlink="http://www.w3.org/1999/xlink" contentStyleType="text/css" data-diagram-type="SEQUENCE" height="826px" preserveAspectRatio="none" style="width:1324px;height:826px;background:#FFFFFF;" version="1.1" viewBox="0 0 1324 826" width="1324px" zoomAndPan="magnify"><title>Scenario 1: Successful Command Execution</title><defs/><g><text fill="#000000" font-family="sans-serif" font-size="14" font-weight="bold" lengthAdjust="spacing" textLength="299.4729" x="511.4116" y="29.9659">Scenario 1: Successful Command Execution</text><rect fill="none" height="331.336" style="stroke:#000000;stroke-width:1.5;" width="554.3082" x="646.7844" y="267.9599"/><rect fill="none" height="234.218" style="stroke:#000000;stroke-width:1.5;" width="340.6661" x="850.4264" y="326.3719"/><g class="participant-lifeline" data-entity-uid="part1" data-qualified-name="User" id="part1-lifeline"><g><title>User</title><rect fill="#000000" fill-opacity="0.00000" height="618.9842" width="8" x="19.3089" y="124.1358"/><line style="stroke:#181818;stroke-width:0.5;stroke-dasharray:5,5;" x1="23" x2="23" y1="124.1358" y2="743.12"/></g></g><g class="participant-lifeline" data-entity-uid="part2" data-qualified-name="Main" id="part2-lifeline"><g><title>Main</title><rect fill="#000000" fill-opacity="0.00000" height="618.9842" width="8" x="223.8141" y="124.1358"/><line style="stroke:#181818;stroke-width:0.5;stroke-dasharray:5,5;" x1="227.4062" x2="227.4062" y1="124.1358" y2="743.12"/></g></g><g class="participant-lifeline" data-entity-uid="part3" data-qualified-name="InputParser" id="part3-lifeline"><g><title>InputParser</title><rect fill="#000000" fill-opacity="0.00000" height="618.9842" width="8" x="596.6825" y="124.1358"/><line style="stroke:#181818;stroke-width:0.5;stroke-dasharray:5,5;" x1="600.5807" x2="600.5807" y1="124.1358" y2="743.12"/></g></g><g class="participant-lifeline" data-entity-uid="part4" data-qualified-name="MissionControl" id="part4-lifeline"><g><title>MissionControl</title><rect fill="#000000" fill-opacity="0.00000" height="618.9842" width="8" x="709.4562" y="124.1358"/><line style="stroke:#181818;stroke-width:0.5;stroke-dasharray:5,5;" x1="712.7844" x2="712.7844" y1="124.1358" y2="743.12"/></g></g><g class="participant-lifeline" data-entity-uid="part5" data-qualified-name="Rover" id="part5-lifeline"><g><title>Rover</title><rect fill="#000000" fill-opacity="0.00000" height="618.9842" width="8" x="882.4103" y="124.1358"/><line style="stroke:#181818;stroke-width:0.5;stroke-dasharray:5,5;" x1="885.4264" x2="885.4264" y1="124.1358" y2="743.12"/></g></g><g class="participant-lifeline" data-entity-uid="part6" data-qualified-name="Grid" id="part6-lifeline"><g><title>Grid</title><rect fill="#000000" fill-opacity="0.00000" height="618.9842" width="8" x="1155.9946" y="124.1358"/><line style="stroke:#181818;stroke-width:0.5;stroke-dasharray:5,5;" x1="1159.8966" x2="1159.8966" y1="124.1358" y2="743.12"/></g></g><g class="participant-lifeline" data-entity-uid="part7" data-qualified-name="OutputFormatter" id="part7-lifeline"><g><title>OutputFormatter</title><rect fill="#000000" fill-opacity="0.00000" height="618.9842" width="8" x="1250.6943" y="124.1358"/><line style="stroke:#181818;stroke-width:0.5;stroke-dasharray:5,5;" x1="1254.0925" x2="1254.0925" y1="124.1358" y2="743.12"/></g></g><g class="participant participant-head" data-entity-uid="part1" data-qualified-name="User" id="part1-head"><text fill="#000000" font-family="sans-serif" font-size="14" lengthAdjust="spacing" textLength="30.6179" x="5" y="120.0339">User</text><ellipse cx="23.3089" cy="53.5679" fill="#E2E2F0" rx="8" ry="8" style="stroke:#181818;stroke-width:0.5;"/><path d="M23.3089,61.5679 L23.3089,88.5679 M10.3089,69.5679 L36.3089,69.5679 M23.3089,88.5679 L10.3089,103.5679 M23.3089,88.5679 L36.3089,103.5679" fill="none" style="stroke:#181818;stroke-width:0.5;"/></g><g class="participant participant-tail" data-entity-uid="part1" data-qualified-name="User" id="part1-tail"><text fill="#000000" font-family="sans-serif" font-size="14" lengthAdjust="spacing" textLength="30.6179" x="5" y="757.0859">User</text><ellipse cx="23.3089" cy="769.6879" fill="#E2E2F0" rx="8" ry="8" style="stroke:#181818;stroke-width:0.5;"/><path d="M23.3089,777.6879 L23.3089,804.6879 M10.3089,785.6879 L36.3089,785.6879 M23.3089,804.6879 L10.3089,819.6879 M23.3089,804.6879 L36.3089,819.6879" fill="none" style="stroke:#181818;stroke-width:0.5;"/></g><g class="participant participant-head" data-entity-uid="part2" data-qualified-name="Main" id="part2-head"><rect fill="#E2E2F0" height="33.0679" rx="2.5" ry="2.5" style="stroke:#181818;stroke-width:0.5;" width="46.8159" x="204.4062" y="90.0679"/><text fill="#000000" font-family="sans-serif" font-size="14" lengthAdjust="spacing" textLength="32.8159" x="211.4062" y="112.0339">Main</text></g><g class="participant participant-tail" data-entity-uid="part2" data-qualified-name="Main" id="part2-tail"><rect fill="#E2E2F0" height="33.0679" rx="2.5" ry="2.5" style="stroke:#181818;stroke-width:0.5;" width="46.8159" x="204.4062" y="742.12"/><text fill="#000000" font-family="sans-serif" font-size="14" lengthAdjust="spacing" textLength="32.8159" x="211.4062" y="764.0859">Main</text></g><g class="participant participant-head" data-entity-uid="part3" data-qualified-name="InputParser" id="part3-head"><rect fill="#E2E2F0" height="33.0679" rx="2.5" ry="2.5" style="stroke:#181818;stroke-width:0.5;" width="92.2037" x="554.5807" y="90.0679"/><text fill="#000000" font-family="sans-serif" font-size="14" lengthAdjust="spacing" textLength="78.2037" x="561.5807" y="112.0339">InputParser</text></g><g class="participant participant-tail" data-entity-uid="part3" data-qualified-name="InputParser" id="part3-tail"><rect fill="#E2E2F0" height="33.0679" rx="2.5" ry="2.5" style="stroke:#181818;stroke-width:0.5;" width="92.2037" x="554.5807" y="742.12"/><text fill="#000000" font-family="sans-serif" font-size="14" lengthAdjust="spacing" textLength="78.2037" x="561.5807" y="764.0859">InputParser</text></g><g class="participant participant-head" data-entity-uid="part4" data-qualified-name="MissionControl" id="part4-head"><rect fill="#E2E2F0" height="33.0679" rx="2.5" ry="2.5" style="stroke:#181818;stroke-width:0.5;" width="113.3436" x="656.7844" y="90.0679"/><text fill="#000000" font-family="sans-serif" font-size="14" lengthAdjust="spacing" textLength="99.3436" x="663.7844" y="112.0339">MissionControl</text></g><g class="participant participant-tail" data-entity-uid="part4" data-qualified-name="MissionControl" id="part4-tail"><rect fill="#E2E2F0" height="33.0679" rx="2.5" ry="2.5" style="stroke:#181818;stroke-width:0.5;" width="113.3436" x="656.7844" y="742.12"/><text fill="#000000" font-family="sans-serif" font-size="14" lengthAdjust="spacing" textLength="99.3436" x="663.7844" y="764.0859">MissionControl</text></g><g class="participant participant-head" data-entity-uid="part5" data-qualified-name="Rover" id="part5-head"><rect fill="#E2E2F0" height="33.0679" rx="2.5" ry="2.5" style="stroke:#181818;stroke-width:0.5;" width="51.9678" x="860.4264" y="90.0679"/><text fill="#000000" font-family="sans-serif" font-size="14" lengthAdjust="spacing" textLength="37.9678" x="867.4264" y="112.0339">Rover</text></g><g class="participant participant-tail" data-entity-uid="part5" data-qualified-name="Rover" id="part5-tail"><rect fill="#E2E2F0" height="33.0679" rx="2.5" ry="2.5" style="stroke:#181818;stroke-width:0.5;" width="51.9678" x="860.4264" y="742.12"/><text fill="#000000" font-family="sans-serif" font-size="14" lengthAdjust="spacing" textLength="37.9678" x="867.4264" y="764.0859">Rover</text></g><g class="participant participant-head" data-entity-uid="part6" data-qualified-name="Grid" id="part6-head"><rect fill="#E2E2F0" height="33.0679" rx="2.5" ry="2.5" style="stroke:#181818;stroke-width:0.5;" width="42.1959" x="1138.8966" y="90.0679"/><text fill="#000000" font-family="sans-serif" font-size="14" lengthAdjust="spacing" textLength="28.1959" x="1145.8966" y="112.0339">Grid</text></g><g class="participant participant-tail" data-entity-uid="part6" data-qualified-name="Grid" id="part6-tail"><rect fill="#E2E2F0" height="33.0679" rx="2.5" ry="2.5" style="stroke:#181818;stroke-width:0.5;" width="42.1959" x="1138.8966" y="742.12"/><text fill="#000000" font-family="sans-serif" font-size="14" lengthAdjust="spacing" textLength="28.1959" x="1145.8966" y="764.0859">Grid</text></g><g class="participant participant-head" data-entity-uid="part7" data-qualified-name="OutputFormatter" id="part7-head"><rect fill="#E2E2F0" height="33.0679" rx="2.5" ry="2.5" style="stroke:#181818;stroke-width:0.5;" width="127.2036" x="1191.0925" y="90.0679"/><text fill="#000000" font-family="sans-serif" font-size="14" lengthAdjust="spacing" textLength="113.2036" x="1198.0925" y="112.0339">OutputFormatter</text></g><g class="participant participant-tail" data-entity-uid="part7" data-qualified-name="OutputFormatter" id="part7-tail"><rect fill="#E2E2F0" height="33.0679" rx="2.5" ry="2.5" style="stroke:#181818;stroke-width:0.5;" width="127.2036" x="1191.0925" y="742.12"/><text fill="#000000" font-family="sans-serif" font-size="14" lengthAdjust="spacing" textLength="113.2036" x="1198.0925" y="764.0859">OutputFormatter</text></g><g class="message" data-entity-1="part1" data-entity-2="part2" id="msg1"><polygon fill="#181818" points="215.8141,153.8419,225.8141,157.8419,215.8141,161.8419,219.8141,157.8419" style="stroke:#181818;stroke-width:1;"/><line style="stroke:#181818;stroke-width:1;" x1="23.3089" x2="221.8141" y1="157.8419" y2="157.8419"/><text fill="#000000" font-family="sans-serif" font-size="13" lengthAdjust="spacing" textLength="180.5052" x="30.3089" y="152.0328">run("0 0 N", "5 5", "", "MRML")</text></g><g class="message" data-entity-1="part2" data-entity-2="part3" id="msg2"><polygon fill="#181818" points="588.6825,185.5479,598.6825,189.5479,588.6825,193.5479,592.6825,189.5479" style="stroke:#181818;stroke-width:1;"/><line style="stroke:#181818;stroke-width:1;" x1="227.8141" x2="594.6825" y1="189.5479" y2="189.5479"/><text fill="#000000" font-family="sans-serif" font-size="13" lengthAdjust="spacing" textLength="74.1261" x="234.8141" y="183.7389">parse(input)</text></g><g class="message" data-entity-1="part3" data-entity-2="part2" id="msg3"><polygon fill="#181818" points="238.8141,217.2539,228.8141,221.2539,238.8141,225.2539,234.8141,221.2539" style="stroke:#181818;stroke-width:1;"/><line style="stroke:#181818;stroke-width:1;stroke-dasharray:2,2;" x1="232.8141" x2="599.6825" y1="221.2539" y2="221.2539"/><text fill="#000000" font-family="sans-serif" font-size="13" lengthAdjust="spacing" textLength="348.8684" x="244.8141" y="215.4449">rover(0,0,N), grid(5x5, no obstacles), commands[M,R,M,L]</text></g><g class="message" data-entity-1="part2" data-entity-2="part4" id="msg4"><polygon fill="#181818" points="701.4562,248.9599,711.4562,252.9599,701.4562,256.9599,705.4562,252.9599" style="stroke:#181818;stroke-width:1;"/><line style="stroke:#181818;stroke-width:1;" x1="227.8141" x2="707.4562" y1="252.9599" y2="252.9599"/><text fill="#000000" font-family="sans-serif" font-size="13" lengthAdjust="spacing" textLength="194.5842" x="234.8141" y="247.1509">execute(rover, grid, commands)</text></g><path d="M646.7844,267.9599 L720.0724,267.9599 L720.0724,277.6659 L710.0724,287.6659 L646.7844,287.6659 L646.7844,267.9599" fill="#EEEEEE" style="stroke:#000000;stroke-width:1.5;"/><rect fill="none" height="331.336" style="stroke:#000000;stroke-width:1.5;" width="554.3082" x="646.7844" y="267.9599"/><text fill="#000000" font-family="sans-serif" font-size="13" font-weight="bold" lengthAdjust="spacing" textLength="28.288" x="661.7844" y="282.8569">loop</text><text fill="#000000" font-family="sans-serif" font-size="11" font-weight="bold" lengthAdjust="spacing" textLength="109.9882" x="735.0724" y="281.7188">[for each command]</text><g class="message" data-entity-1="part4" data-entity-2="part5" id="msg5"><polygon fill="#181818" points="874.4103,307.3719,884.4103,311.3719,874.4103,315.3719,878.4103,311.3719" style="stroke:#181818;stroke-width:1;"/><line style="stroke:#181818;stroke-width:1;" x1="713.4562" x2="880.4103" y1="311.3719" y2="311.3719"/><text fill="#000000" font-family="sans-serif" font-size="13" lengthAdjust="spacing" textLength="148.9541" x="720.4562" y="305.5629">execute(command, grid)</text></g><path d="M850.4264,326.3719 L912.8854,326.3719 L912.8854,336.0779 L902.8854,346.0779 L850.4264,346.0779 L850.4264,326.3719" fill="#EEEEEE" style="stroke:#000000;stroke-width:1.5;"/><rect fill="none" height="234.218" style="stroke:#000000;stroke-width:1.5;" width="340.6661" x="850.4264" y="326.3719"/><text fill="#000000" font-family="sans-serif" font-size="13" font-weight="bold" lengthAdjust="spacing" textLength="17.459" x="865.4264" y="341.2689">alt</text><text fill="#000000" font-family="sans-serif" font-size="11" font-weight="bold" lengthAdjust="spacing" textLength="90.8593" x="927.8854" y="340.1308">[command == M]</text><g class="message" data-entity-1="part5" data-entity-2="part5" id="msg6"><line style="stroke:#181818;stroke-width:1;" x1="886.4103" x2="928.4103" y1="369.784" y2="369.784"/><line style="stroke:#181818;stroke-width:1;" x1="928.4103" x2="928.4103" y1="369.784" y2="382.784"/><line style="stroke:#181818;stroke-width:1;" x1="887.4103" x2="928.4103" y1="382.784" y2="382.784"/><polygon fill="#181818" points="897.4103,378.784,887.4103,382.784,897.4103,386.784,893.4103,382.784" style="stroke:#181818;stroke-width:1;"/><text fill="#000000" font-family="sans-serif" font-size="13" lengthAdjust="spacing" textLength="259.5843" x="893.4103" y="363.975">nextPosition = position.translate(direction)</text></g><g class="message" data-entity-1="part5" data-entity-2="part6" id="msg7"><polygon fill="#181818" points="1147.9946,410.49,1157.9946,414.49,1147.9946,418.49,1151.9946,414.49" style="stroke:#181818;stroke-width:1;"/><line style="stroke:#181818;stroke-width:1;" x1="886.4103" x2="1153.9946" y1="414.49" y2="414.49"/><text fill="#000000" font-family="sans-serif" font-size="13" lengthAdjust="spacing" textLength="146.8611" x="893.4103" y="408.681">isObstacle(nextPosition)</text></g><g class="message" data-entity-1="part6" data-entity-2="part5" id="msg8"><polygon fill="#181818" points="897.4103,442.196,887.4103,446.196,897.4103,450.196,893.4103,446.196" style="stroke:#181818;stroke-width:1;"/><line style="stroke:#181818;stroke-width:1;stroke-dasharray:2,2;" x1="891.4103" x2="1158.9946" y1="446.196" y2="446.196"/><text fill="#000000" font-family="sans-serif" font-size="13" lengthAdjust="spacing" textLength="28.678" x="903.4103" y="440.387">false</text></g><g class="message" data-entity-1="part5" data-entity-2="part5" id="msg9"><line style="stroke:#181818;stroke-width:1;" x1="886.4103" x2="928.4103" y1="477.902" y2="477.902"/><line style="stroke:#181818;stroke-width:1;" x1="928.4103" x2="928.4103" y1="477.902" y2="490.902"/><line style="stroke:#181818;stroke-width:1;" x1="887.4103" x2="928.4103" y1="490.902" y2="490.902"/><polygon fill="#181818" points="897.4103,486.902,887.4103,490.902,897.4103,494.902,893.4103,490.902" style="stroke:#181818;stroke-width:1;"/><text fill="#000000" font-family="sans-serif" font-size="13" lengthAdjust="spacing" textLength="139.7761" x="893.4103" y="472.093">position = nextPosition</text></g><line style="stroke:#000000;stroke-width:1;stroke-dasharray:2,2;" x1="850.4264" x2="1191.0925" y1="499.902" y2="499.902"/><text fill="#000000" font-family="sans-serif" font-size="11" font-weight="bold" lengthAdjust="spacing" textLength="111.4842" x="855.4264" y="511.6609">[command == L or R]</text><g class="message" data-entity-1="part5" data-entity-2="part5" id="msg10"><line style="stroke:#181818;stroke-width:1;" x1="886.4103" x2="928.4103" y1="539.5899" y2="539.5899"/><line style="stroke:#181818;stroke-width:1;" x1="928.4103" x2="928.4103" y1="539.5899" y2="552.5899"/><line style="stroke:#181818;stroke-width:1;" x1="887.4103" x2="928.4103" y1="552.5899" y2="552.5899"/><polygon fill="#181818" points="897.4103,548.5899,887.4103,552.5899,897.4103,556.5899,893.4103,552.5899" style="stroke:#181818;stroke-width:1;"/><text fill="#000000" font-family="sans-serif" font-size="13" lengthAdjust="spacing" textLength="232.9342" x="893.4103" y="533.7809">direction = direction.rotate(command)</text></g><g class="message" data-entity-1="part5" data-entity-2="part4" id="msg11"><polygon fill="#181818" points="724.4562,587.2959,714.4562,591.2959,724.4562,595.2959,720.4562,591.2959" style="stroke:#181818;stroke-width:1;"/><line style="stroke:#181818;stroke-width:1;stroke-dasharray:2,2;" x1="718.4562" x2="885.4103" y1="591.2959" y2="591.2959"/><text fill="#000000" font-family="sans-serif" font-size="13" lengthAdjust="spacing" textLength="14.807" x="730.4562" y="585.4869">ok</text></g><g class="message" data-entity-1="part4" data-entity-2="part2" id="msg12"><polygon fill="#181818" points="238.8141,626.002,228.8141,630.002,238.8141,634.002,234.8141,630.002" style="stroke:#181818;stroke-width:1;"/><line style="stroke:#181818;stroke-width:1;stroke-dasharray:2,2;" x1="232.8141" x2="712.4562" y1="630.002" y2="630.002"/><text fill="#000000" font-family="sans-serif" font-size="13" lengthAdjust="spacing" textLength="72.0591" x="244.8141" y="624.1929">rover(1,1,N)</text></g><g class="message" data-entity-1="part2" data-entity-2="part7" id="msg13"><polygon fill="#181818" points="1242.6943,657.708,1252.6943,661.708,1242.6943,665.708,1246.6943,661.708" style="stroke:#181818;stroke-width:1;"/><line style="stroke:#181818;stroke-width:1;" x1="227.8141" x2="1248.6943" y1="661.708" y2="661.708"/><text fill="#000000" font-family="sans-serif" font-size="13" lengthAdjust="spacing" textLength="82.1861" x="234.8141" y="655.899">format(rover)</text></g><g class="message" data-entity-1="part7" data-entity-2="part2" id="msg14"><polygon fill="#181818" points="238.8141,689.414,228.8141,693.414,238.8141,697.414,234.8141,693.414" style="stroke:#181818;stroke-width:1;"/><line style="stroke:#181818;stroke-width:1;stroke-dasharray:2,2;" x1="232.8141" x2="1253.6943" y1="693.414" y2="693.414"/><text fill="#000000" font-family="sans-serif" font-size="13" lengthAdjust="spacing" textLength="42.328" x="244.8141" y="687.605">"1:1:N"</text></g><g class="message" data-entity-1="part2" data-entity-2="part1" id="msg15"><polygon fill="#181818" points="34.3089,721.12,24.3089,725.12,34.3089,729.12,30.3089,725.12" style="stroke:#181818;stroke-width:1;"/><line style="stroke:#181818;stroke-width:1;" x1="28.3089" x2="226.8141" y1="725.12" y2="725.12"/><text fill="#000000" font-family="sans-serif" font-size="13" lengthAdjust="spacing" textLength="79.5731" x="40.3089" y="719.311">print("1:1:N")</text></g><?plantuml-src TP9DQyCm38Rl_XKYfmJSqXnwANINier1qusMdiOEdkjkPgaTR6NqvqzsijHDDqE8qCTZ-PLGOwrW9vKHJbie5x1hfLJU7ziQLlPq4kO0zsSbMzJMC2OaMWTxhnnhX4CjTICCGYMqkN8ycQR55-5k4hNt15fPWyxMLw6j_HubFpfzk78yjqZO1-jE0f6IMMW49dVnVbY0QqsUpM06cun3DeTv-8MlsbRhh60nZTAJxgYg2KQkWwzWQMYIa4Dp-OpF-ARWy46DvVFpd8EnODyz2bahJm7PAUPVAxxb5L-_iU7EwvSJKaLLLHxH7VC2A1YhhMtWI6eh8Jz_0mpeZ504Zzebp3wxenQnIDJu2u7b4ghe3AUhJI16dV75UXqc3ajeUdEAJXXV2y8Vj5Co-8fRIXWQGRH_xdN9Kzwb8EPDackFelRg_wwQIqSfC1OegamVjmQIRVi_Q-YVO8CzTHR5HRkkKzLBtYF-cgFzOY6BZQSoNfwIbxGympwCTZa84Erk7mesZYUyh5oKYqqseFRz7ZjjCE-31Vi1?></g></svg>