<?plantuml 1.2026.2?><svg xmlns="http://www.w3.org/2000/svg" xmlns:xlink="http://www.w3.org/1999/xlink" contentStyleType="text/css" data-diagram-type="DESCRIPTION" height="208px" preserveAspectRatio="none" style="width:248px;height:208px;background:#FFFFFF;" version="1.1" viewBox="0 0 248 208" width="248px" zoomAndPan="magnify"><defs/><g><!--entity Mars Rover Simulator--><g class="entity" data-qualified-name="Mars Rover Simulator" data-source-line="3" id="ent0003"><rect fill="#F1F1F1" height="39.0679" rx="2.5" ry="2.5" style="stroke:#181818;stroke-width:0.5;" width="162.0995" x="19.47" y="7"/><text fill="#000000" font-family="sans-serif" font-size="14" lengthAdjust="spacing" textLength="142.0995" x="29.47" y="31.9659">Mars Rover Simulator</text></g><!--entity User--><g class="entity" data-qualified-name="User" data-source-line="1" id="ent0002"><ellipse cx="100.2789" cy="133.5" fill="#F1F1F1" rx="8" ry="8" style="stroke:#181818;stroke-width:0.5;"/><path d="M100.2789,141.5 L100.2789,168.5 M87.2789,149.5 L113.2789,149.5 M100.2789,168.5 L87.2789,183.5 M100.2789,168.5 L113.2789,183.5" fill="none" style="stroke:#181818;stroke-width:0.5;"/><text fill="#000000" font-family="sans-serif" font-size="14" lengthAdjust="spacing" textLength="30.6179" x="84.97" y="199.9659">User</text></g><!--link User to Mars Rover Simulator--><g class="link" data-entity-1="ent0002" data-entity-2="ent0003" data-link-type="dependency" data-source-line="6" id="lnk4"><path d="M116.16,141.79 C126.91,124.22 138.12,98.74 131.47,76 C128.33,65.26 125.4923,59.5089 119.3723,50.9589" fill="none" id="User-to-Mars Rover Simulator" style="stroke:#181818;stroke-width:1;"/><polygon fill="#181818" points="115.88,46.08,117.8658,55.7266,118.7902,50.1458,124.371,51.0702,115.88,46.08" style="stroke:#181818;stroke-width:1;"/><text fill="#000000" font-family="sans-serif" font-size="13" lengthAdjust="spacing" textLength="107.1591" x="133.47" y="90.897">sends commands</text></g><!--link Mars Rover Simulator to User--><g class="link" data-entity-1="ent0003" data-entity-2="ent0002" data-link-type="dependency" data-source-line="7" id="lnk5"><path d="M55.38,46.16 C43.15,53.56 31.39,63.37 24.47,76 C6,109.7 52.0726,139.0597 79.3626,153.1997" fill="none" id="Mars Rover Simulator-to-User" style="stroke:#181818;stroke-width:1;"/><polygon fill="#181818" points="84.69,155.96,78.5392,148.268,80.2505,153.6597,74.8588,155.3711,84.69,155.96" style="stroke:#181818;stroke-width:1;"/><text fill="#000000" font-family="sans-serif" font-size="13" lengthAdjust="spacing" textLength="97.8251" x="25.47" y="90.897">returns position</text></g><?plantuml-src TSox3O0m34NHtbCyqRC01HlGW1Z02XQAbCJ83ZI8tVdqTBSukXog6cON8p89bSkQ1Ct0vXZr4CCKyvxuKGrEkeXUYxRj_r07bx8uWkRCJz2FUnVVguD9tQquDlLOenQw0G00?></g></svg>